<svg viewBox="0 0 512 512" xmlns="http://www.w3.org/2000/svg">
  <path d="M74.835 327.098c-18.784 0-33.996 15.212-33.996 33.996 0 18.784 15.212 33.996 33.996 33.996h96.177l-31.942 70.272a33.948 33.948 0 0 0 12.565 46.456 33.954 33.954 0 0 0 46.456-12.565l79.999-175.628 79.999 175.627a33.953 33.953 0 0 0 46.456 12.565c11.403-5.086 19.027-16.558 19.027-29.322 0-4.621-1.014-8.985-2.832-12.981l-31.942-70.271h96.177c18.784 0 33.996-15.212 33.996-33.996s-15.212-33.996-33.996-33.996H74.835z" />
  <path d="M455.165 184.903c18.784 0 33.996-15.212 33.996-33.996s-15.212-33.996-33.996-33.996H358.984l31.942-70.272a33.954 33.954 0 0 0-12.565-46.456 33.954 33.954 0 0 0-46.456 12.565l-79.999 175.628L169.92 47.644a33.954 33.954 0 0 0-46.456-12.565 33.954 33.954 0 0 0-12.565 46.456l31.942 70.272H33.996C15.212 152.797 0 168.009 0 186.793s15.212 33.996 33.996 33.996h420.169z" />
</svg>
